<svg width="251" height="251" viewBox="0 0 251 251" fill="none" xmlns="http://www.w3.org/2000/svg">
<path d="M125.5 251C194.812 251 251 194.812 251 125.5C251 56.1883 194.812 0 125.5 0C56.1883 0 0 56.1883 0 125.5C0 194.812 56.1883 251 125.5 251Z" fill="#8954DF"/>
<path d="M132 227C188.333 227 234 179.99 234 122C234 64.0101 188.333 17 132 17C75.667 17 30 64.0101 30 122C30 179.99 75.667 227 132 227Z" fill="#F8CFC6"/>
<path d="M219 209.117C217.437 210.868 215.821 212.578 214.147 214.253C190.451 237.948 158.952 251 125.443 251C91.935 251 60.4361 237.948 36.7399 214.253C13.0496 190.553 0 159.048 0 125.533C0 88.4043 16.2107 54.9954 41.9163 32C22.0686 54.2021 12.4323 82.4704 12.4323 114.522C12.4323 148.036 23.0381 180.562 46.7284 204.263C70.4245 227.958 101.923 241.01 135.432 241.01C166.572 241.01 195.98 229.732 219 209.117Z" fill="#60379A"/>
<path d="M156.637 38.5077C156.584 38.7744 163.528 42.3607 164.352 43.3937C164.873 44.2493 166.881 45.269 168.551 46.3812C174.573 50.4096 180.808 57.7244 183.37 63.7655C184.909 67.398 185.629 71.2056 185.427 74.5973C185.326 76.367 184.811 78.7953 184.149 80.6236C182.84 84.2464 181.033 86.9994 177.107 91.3391L176.206 92.3287L176.356 91.5642C176.561 90.5153 176.786 88.1608 176.835 86.6026C177.13 76.3125 172.426 68.2575 162.941 62.7372C161.335 61.8032 158.806 60.5636 158.728 60.6594C158.589 60.8172 159.464 63.179 160.124 64.375C161.048 66.0823 161.344 66.5263 163.864 70.1247C166.089 73.3166 167.411 75.4505 168.189 77.1484C168.873 78.6255 169.488 80.9562 169.585 82.4686C169.666 83.6644 169.652 83.8831 169.354 85.3568C169.076 86.779 168.985 87.0936 168.498 88.1255C166.953 91.4451 164.026 94.7031 160.629 96.8938C158.85 98.0476 158.84 98.0458 159.004 97.5607C159.332 96.5354 160.01 93.3267 160.104 92.2935C160.597 87.1131 158.925 82.146 155.938 79.9335C154.747 79.0418 153.056 78.4419 152.172 78.5865C151.733 78.6686 151.763 78.7666 153.063 81.4679C154.491 84.4151 155.058 86.2386 155.166 88.1958C155.241 89.5196 155.223 89.8113 154.973 91.0913C154.726 92.3535 154.629 92.6485 154.132 93.6786C152.028 98.0529 146.798 101.221 140.156 102.165C136.042 102.743 132.701 102.639 128.16 101.789C119.946 100.219 112.75 96.4091 109.609 91.9725C108.171 89.9271 107.452 87.7241 107.554 85.5488C107.618 84.2149 108.074 82.4393 108.702 81.1392C109.777 78.9103 111.336 77.6775 114.993 76.1636C117.496 75.1296 118.825 74.314 119.733 73.2889C120.35 72.5954 120.357 72.5599 120.065 72.5962C119.903 72.6206 119.243 72.6788 118.618 72.707C117.013 72.8243 114.665 73.2236 113.072 73.6754C107.596 75.192 104.269 78.0786 102.967 82.4219C102.432 84.2008 102.272 86.6232 102.549 88.7232C102.625 89.291 102.667 89.7786 102.65 89.8123C102.576 89.8903 100.478 88.106 99.7851 87.3281C97.4747 84.8208 95.5508 80.6907 95.3503 77.8491C95.2884 76.8598 95.3097 76.5503 95.5707 75.217C95.8421 73.8303 95.9123 73.6224 96.4242 72.6137C97.5562 70.3957 99.818 68.0801 102.945 65.9115C104.469 64.8565 105.458 64.271 109.728 61.8413C111.462 60.8634 113.329 59.7632 113.896 59.3738L114.91 58.6639L114.396 58.3259C113.735 57.8861 110.6 57.2866 109.341 57.341C100.832 57.78 92.7658 63.1356 89.3328 70.631C88.5819 72.258 88.1017 73.8076 87.6841 75.9409L87.3152 77.8253L86.7259 76.9196C84.3761 73.4089 83.237 69.3366 83.4506 65.2831C83.5167 64.0417 84.0038 61.5528 84.424 60.3606C85.7719 56.4871 88.3148 53.1371 92.0913 50.2627C98.7515 45.21 107.357 42.1706 116.912 41.5075C119.196 41.3356 118.927 41.5055 119.209 40.0655C119.414 39.0166 119.421 38.8334 119.288 38.8081C118.616 38.6795 114.534 38.5446 112.717 38.5847C102.705 38.7731 93.0995 41.5476 84.7428 46.6816C81.7927 48.4968 79.7984 50.1996 77.8847 52.5448C73.3119 58.181 71.9445 64.6143 73.8798 71.347C75.6243 77.3978 78.664 81.5014 85.339 86.8164C85.8388 87.2255 85.8448 87.2451 86.0281 88.7187C86.6473 93.8904 88.7603 99.1632 91.9991 103.655C95.2938 108.214 102.3 114.901 109.533 120.378C120.894 128.968 133.035 134.425 143.728 135.731C147.557 136.205 149.065 136.235 154.677 136.035C159.991 135.852 161.381 135.731 163.517 135.309C170.893 133.879 175.669 129.665 179.014 121.618C179.344 120.833 179.603 120.163 179.588 120.141C179.576 120.102 179.029 120.385 178.354 120.772C163.681 129.051 147.076 130.027 130.671 123.608C121.123 119.864 112.034 113.977 103.413 105.948C98.9392 101.791 96.5285 99.0437 94.1557 95.3995C93.5484 94.4351 92.8603 93.3814 92.6472 93.064C92.4281 92.727 92.241 92.3777 92.2359 92.303C92.2179 92.2442 92.5725 92.4411 93.0045 92.745C99.0213 97.1043 107.379 101.155 115.729 103.784C125.221 106.76 138.867 109 147.485 109.006C158.559 109.021 170.02 106.306 179.539 101.413C186.947 97.6095 191.783 92.3371 194.304 85.3313C194.907 83.6576 195.589 80.3209 195.666 78.6756C196.004 71.3262 193.47 64.5345 187.759 57.4118C184.09 52.856 179.528 48.8485 174.486 45.7823C171.643 44.04 169.453 42.9758 165.115 41.1875C164.822 41.0762 156.657 38.4011 156.637 38.5077Z" fill="#8954DF"/>
<path d="M187.644 99.3363C184.37 102.307 179.08 105.98 175.054 108.069C164.93 113.345 154.427 115.136 139.663 114.139C131.033 113.541 129.138 113.179 124.234 111.116C119.789 109.271 118.425 108.807 116.383 108.546C114.543 108.305 113.388 108.379 111.955 108.824C110.241 109.345 110.237 109.363 111.674 110.006C124.033 115.559 130.962 117.917 139.726 119.592C148.603 121.289 155.842 121.364 164.242 119.871C168.225 119.157 170.907 118.36 173.792 117.031C179.915 114.218 184.551 109.11 187.313 102.132C187.9 100.639 188.549 98.6794 188.464 98.6631C188.422 98.6736 188.059 98.973 187.644 99.3363Z" fill="#8954DF"/>
<path d="M91.8063 104.806C91.7924 104.877 91.9424 105.717 92.1284 106.675C93.808 115.166 97.1882 122.802 101.879 128.715C110.005 138.918 121.422 145.416 138.613 149.625C143.059 150.715 151.472 152.323 153.535 152.478C161.493 153.095 166.57 150.156 169.751 143.092C170.232 142.04 170.912 140.123 171.294 138.776L171.5 138.023L169.735 139.16C163.89 142.857 157.734 144.686 150.978 144.704C146.298 144.713 140.286 143.49 135.238 141.511C126.525 138.074 117.235 131.909 108.224 123.565C105.68 121.198 105.192 120.625 101.023 114.959C96.4797 108.798 94.8867 106.944 92.8562 105.468C92.4492 105.187 92.0551 104.89 91.9803 104.821C91.896 104.749 91.8167 104.752 91.8063 104.806Z" fill="#8954DF"/>
<path d="M105.637 142.602C108.964 152.718 117.094 161.096 126.692 164.332C128.759 165.022 132.877 165.625 134.824 165.518C140.185 165.196 144.936 162.914 148.648 158.865L149.193 158.287L148.483 158.151C147.374 157.939 143.967 157.62 139.948 157.368C135.457 157.063 130.549 156.327 128.492 155.639C124.627 154.347 122.916 153.245 118.004 148.968C113.329 144.884 112.113 143.914 110.386 142.846C108.809 141.862 107.403 141.261 106.162 141.024L105.05 140.83L105.637 142.602Z" fill="#8954DF"/>
<path d="M105.393 153.197C104.95 156.764 105.495 159.856 107.212 163.688C108.065 165.604 109.661 168.546 110.443 169.673C112.407 172.446 114.899 174.527 118.151 176.089C119.015 176.494 119.92 176.741 122.071 177.152C124.496 177.616 125.056 177.667 126.316 177.558C130.744 177.132 134.677 175.062 137.765 171.539L138.651 170.528L132.372 169.217C126.367 167.959 123.995 167.321 121.45 166.263C115.241 163.692 110.67 159.978 106.723 154.337L105.48 152.55L105.393 153.197Z" fill="#8954DF"/>
<path d="M102.904 169.227C102.63 170.779 102.616 171.053 102.713 172.363C102.88 174.774 103.695 177.29 105.279 180.341C107.582 184.746 109.893 186.848 113.426 187.726C117.127 188.655 120.323 187.791 123.61 185.007C124.72 184.057 127.028 181.456 126.952 181.238C126.881 181.003 124.551 180.3 120.204 179.21C117.702 178.585 115.186 177.882 114.607 177.679C110.08 176.002 106.789 173.179 103.709 168.33L103.191 167.511L102.904 169.227Z" fill="#8954DF"/>
<path d="M97.872 184.79C97.7885 185.217 97.9264 188.378 98.0939 190.033C98.6489 195.432 100.451 201.642 102.779 206.218C103.544 207.729 103.601 207.74 103.824 206.602C103.88 206.318 104.18 205.435 104.483 204.644C105.392 202.309 106.333 200.866 109.279 197.262C111.659 194.342 112.513 193.195 113.245 191.915L113.513 191.45L112.632 191.429C111.283 191.393 107.523 190.618 106.406 190.147C104.028 189.139 101.897 187.828 99.3589 185.83C98.668 185.292 98.059 184.789 98.0091 184.742C97.9498 184.694 97.8894 184.701 97.872 184.79Z" fill="#8954DF"/>
<path d="M129.677 80.0475C126.793 80.1425 123.286 80.7108 121.242 81.442C119.705 81.9949 117.814 82.9758 117.715 83.2732C117.58 83.6902 117.812 85.8186 118.157 87.1535C119.286 91.6277 122.284 94.2879 127.479 95.4082C129.159 95.7676 131.95 95.9293 133.878 95.7422C135.698 95.5816 139.803 94.9102 140.72 94.6233C142.742 93.9721 144.014 92.7801 144.788 90.7923C145.188 89.7692 145.221 89.6077 145.227 88.8408C145.244 85.9586 143.053 83.5772 139.021 82.1628C134.067 80.412 132.143 79.9772 129.677 80.0475Z" fill="#8954DF"/>
</svg>
