<svg xmlns="http://www.w3.org/2000/svg" xmlns:xlink="http://www.w3.org/1999/xlink" width="1024" height="296" viewBox="0 0 1024 296">
  <defs>
    <linearGradient id="linear-gradient" x1="0.5" x2="0.5" y2="1" gradientUnits="objectBoundingBox">
      <stop offset="0" stop-color="#e17f14"/>
      <stop offset="0.296" stop-color="#e07c14"/>
      <stop offset="0.474" stop-color="#df7414"/>
      <stop offset="0.621" stop-color="#dc6515"/>
      <stop offset="0.75" stop-color="#d95116"/>
      <stop offset="0.869" stop-color="#d53718"/>
      <stop offset="0.978" stop-color="#d0171a"/>
      <stop offset="1" stop-color="#cf101b"/>
    </linearGradient>
    <clipPath id="clip-logo-header-dark">
      <rect width="1024" height="296"/>
    </clipPath>
  </defs>
  <g id="logo-header-dark" clip-path="url(#clip-logo-header-dark)">
    <g id="Group_3535" data-name="Group 3535" transform="translate(-112.541 -404.176)">
      <path id="Path_918" data-name="Path 918" d="M189.242,499.829c12.495,5.406,22,8.206,34.684,8.206,11.934,0,16.6-4.479,16.6-9.694,0-5.782-5.781-8.4-21.442-11.754-21.824-4.844-37.675-11.934-37.675-31.512,0-18.276,15.1-30.956,38.6-30.956,15.852,0,28.532,3.727,39.539,8.2l-8.582,19.023c-9.885-3.727-21.442-6.523-31.512-6.523-9.885,0-14.92,3.542-14.92,8.947,0,5.591,6.152,8.206,22.379,11.558,23.5,4.855,37.108,13.056,37.108,31.523,0,19.2-14.734,31.883-40.656,31.883-17.524,0-28.9-2.425-43.822-9.7Z" transform="translate(298.101 88.728)" fill="#25252c"/>
      <path id="Path_919" data-name="Path 919" d="M236.231,478.026v35.806c0,18.091,2.986,23.311,16.037,23.311a106.7,106.7,0,0,0,11.939-.932V555.6c-1.123.381-8.953,3.733-23.5,3.733-16.968,0-30.58-10.626-30.58-31.883V478.026H195.766V456.583h14.358V417.241h26.107v39.342h28.346v21.442Z" transform="translate(370.279 58.127)" fill="#25252c"/>
      <path id="Path_920" data-name="Path 920" d="M236.726,440.156c6.9-9.514,17.53-15.851,31.888-16.037a19.6,19.6,0,0,1,6.337,1.123v28.15a74.187,74.187,0,0,0-12.489-1.487c-18.652,0-25.736,13.236-25.736,26.477v48.862H210.619V425.983h26.107Z" transform="translate(436.362 88.728)" fill="#25252c"/>
      <path id="Path_921" data-name="Path 921" d="M321.267,424.461V525.722H295.346v-6.713a48.686,48.686,0,0,1-27.6,8.2c-29.654,0-43.266-13.8-43.266-46.617V424.461H250.4v56.131c0,15.661,7.651,23.306,22,23.306a34.61,34.61,0,0,0,22.941-8.016V424.461Z" transform="translate(498.031 90.25)" fill="#25252c"/>
      <path id="Path_922" data-name="Path 922" d="M351.69,417.241v140.6h-26.1v-6.158a59.315,59.315,0,0,1-29.463,7.83c-28.161,0-51.282-21.257-51.282-52.4,0-31.7,23.121-52.4,51.282-52.4a61.28,61.28,0,0,1,29.463,7.645V417.241Zm-26.1,110.023V486.608a38.375,38.375,0,0,0-24.8-8.582c-17.339,0-30.21,12.5-30.21,29.093,0,17.159,12.871,28.9,30.21,28.9C310.484,536.021,319.437,532.664,325.589,527.264Z" transform="translate(588.632 58.127)" fill="#25252c"/>
      <path id="Path_923" data-name="Path 923" d="M292.9,483.977c2.8,13.241,13.427,22.565,28.9,22.565,10.637,0,20.516-4.85,26.112-12.495l16.593,13.8c-9.323,12.686-25.916,20.886-45.685,20.886-30.58,0-51.837-23.311-51.837-52.213,0-29.093,21.257-52.4,51.837-52.4,31.142,0,49.227,22.565,49.227,54.077,0,2.049-.185,4.1-.185,5.781Zm.185-16.6h50.164c-.932-11.563-7.084-22.559-24.428-22.559C305.208,444.82,295.514,454.89,293.089,467.379Z" transform="translate(687.153 88.728)" fill="#25252c"/>
      <path id="Path_924" data-name="Path 924" d="M288.137,417.241h26.112v140.6H288.137Z" transform="translate(781.247 58.127)" fill="#25252c"/>
      <g id="Group_3527" data-name="Group 3527" transform="translate(112.54 404.176)">
        <path id="Path_932" data-name="Path 932" d="M357.579,439.115c-35.861-31.523-90.679-30.085-124.8,3.28a7.018,7.018,0,0,0-2.109,5.237,7.278,7.278,0,0,0,2.474,5.258,7.144,7.144,0,0,0,9.792-.31c28.771-28.036,74.947-29.2,105.141-2.665a98.705,98.705,0,0,1,8.958,139.143c-1.782,2.027-3.651,4.022-5.558,5.923-46.454,46.459-121.526,48.846-170.917,5.438a158.266,158.266,0,0,1-52.513-137.829,7.186,7.186,0,0,0-14.282-1.613,172.643,172.643,0,0,0,57.3,150.248,139.683,139.683,0,0,0,190.577-6.065c2.1-2.1,4.179-4.321,6.19-6.6a113.1,113.1,0,0,0-10.261-159.441Z" transform="translate(-112.54 -349.837)" fill="url(#linear-gradient)"/>
        <path id="Path_933" data-name="Path 933" d="M216.606,670.936a101.663,101.663,0,0,0,21.682,2.343,100.557,100.557,0,0,0,71.225-29.594,99.182,99.182,0,0,0,26.837-49.14c8.909-40.923-15.606-82.777-55.815-95.272a7.307,7.307,0,0,0-5.863.654,7.052,7.052,0,0,0-3.384,4.665,7.209,7.209,0,0,0,5.013,8.419c33.125,10.321,53.33,44.792,46,78.478a84.876,84.876,0,0,1-37.637,53.821,86.161,86.161,0,0,1-65,11.574,109.431,109.431,0,0,1-69.046-47.723,107.848,107.848,0,0,1-15-82.1c15.764-72.38,85.665-119.15,159.13-106.453a7.19,7.19,0,0,0,2.4-14.179,153.075,153.075,0,0,0-111.385,23.638A151.134,151.134,0,0,0,121.562,524a122.138,122.138,0,0,0,16.979,92.984A123.737,123.737,0,0,0,216.606,670.936Z" transform="translate(-85.083 -404.176)" fill="url(#linear-gradient)"/>
        <path id="Path_934" data-name="Path 934" d="M244.073,410.925a107.913,107.913,0,0,0-80.3,26.831,114.515,114.515,0,0,0-38.716,77.317c-4.147,50.687,32.515,95.2,81.726,99.228q2.991.237,5.94.24c35.234,0,65.667-25.752,72.092-62.038a7.367,7.367,0,0,0-1.4-5.76,7.075,7.075,0,0,0-5.089-2.757,7.235,7.235,0,0,0-7.678,6.043c-5.487,30.94-32.428,52.48-62.692,49.93-41.3-3.378-72.059-40.939-68.566-83.72,4.239-51.832,46.486-91.294,95.9-91.294q3.776,0,7.607.316c64.681,5.286,113.527,61.962,111.195,129.018a7.166,7.166,0,0,0,6.582,7.405v.005a7.252,7.252,0,0,0,5.378-1.8,7.149,7.149,0,0,0,2.414-5.139C371.059,480.014,316.415,416.837,244.073,410.925Z" transform="translate(-58.266 -375.724)" fill="url(#linear-gradient)"/>
      </g>
    </g>
  </g>
</svg>
